<svg version="1.1" id="Layer_1" xmlns="http://www.w3.org/2000/svg" xmlns:xlink="http://www.w3.org/1999/xlink" x="0px" y="0px"
	 width="100%" viewBox="0 0 512 512" enable-background="new 0 0 512 512" xml:space="preserve">
<path fill="#000000" opacity="1.000000" stroke="none" 
	d="
M276.000000,513.000000 
	C185.355331,513.000000 95.210640,512.978699 5.066093,513.085632 
	C1.787739,513.089539 0.894994,512.627319 0.897487,509.067871 
	C1.015131,341.108917 1.016969,173.149902 0.891217,5.190982 
	C0.888397,1.425650 1.859493,0.914153 5.307074,0.916123 
	C173.099426,1.012008 340.891815,1.011642 508.684174,0.918132 
	C512.108032,0.916224 513.113403,1.392612 513.110474,5.182201 
	C512.982605,173.141113 512.985107,341.100159 513.101562,509.059113 
	C513.104004,512.600647 512.239929,513.092041 508.942657,513.087280 
	C431.461884,512.974609 353.980927,513.000000 276.000000,513.000000 
z"/>
<path fill="#2BB673" opacity="1.000000" stroke="none" 
	d="
M244.970398,489.999512 
	C226.136505,489.660034 208.325760,486.080139 190.769867,481.025848 
	C167.263123,474.258362 145.542999,463.672455 125.281708,450.052277 
	C110.288094,439.973175 96.614204,428.246460 84.516251,414.888519 
	C70.722000,399.657623 58.796082,382.926666 49.411934,364.616943 
	C39.745716,345.756897 32.739464,325.810608 28.174603,305.106018 
	C23.252338,282.780426 22.525824,259.968140 24.275763,237.399292 
	C27.588566,194.674225 42.218777,155.614456 67.172768,120.716591 
	C80.278603,102.388222 95.846970,86.342705 113.778297,72.449646 
	C134.613556,56.306633 157.381058,43.999859 182.225937,35.596592 
	C198.206635,30.191448 214.676071,26.782923 231.513245,24.750158 
	C239.751602,23.755533 248.126129,23.402548 256.162231,23.508869 
	C266.904907,23.651003 277.820740,23.727192 288.674683,25.538771 
	C302.607330,27.864201 316.334015,30.683718 329.728516,35.046078 
	C337.019440,37.420620 344.278687,40.024784 351.273315,43.149696 
	C366.866699,50.116158 381.579376,58.650814 395.406464,68.743210 
	C420.652435,87.170227 441.068756,109.962189 457.206238,136.628662 
	C470.725922,158.969437 480.146057,183.016846 485.554810,208.524338 
	C488.876099,224.187531 489.879608,240.106201 490.172089,256.182922 
	C490.924591,297.543060 480.282562,335.840271 460.520813,371.751343 
	C452.594757,386.154572 442.739685,399.300995 431.908844,411.806305 
	C415.085907,431.230164 395.315765,446.930267 373.325470,459.802887 
	C353.023621,471.687103 331.122101,479.913574 308.107880,484.972076 
	C293.777802,488.121796 279.328369,489.976959 264.579010,490.250336 
	C258.178741,490.368927 251.829193,489.764069 244.970398,489.999512 
z"/>
<path fill="#FDFEFD" opacity="1.000000" stroke="none" 
	d="
M162.700623,295.299438 
	C157.384064,289.986328 152.402710,284.833435 147.209518,279.903687 
	C145.096039,277.897430 145.929947,276.732971 147.562576,275.138641 
	C152.925522,269.901611 158.337997,264.701355 163.432556,259.209686 
	C165.804230,256.653137 167.124954,257.193604 169.291245,259.379181 
	C186.412964,276.653412 203.715424,293.748962 220.775574,311.083282 
	C223.553452,313.905823 224.970490,313.768280 227.694214,311.034668 
	C270.494385,268.079163 313.442902,225.271439 356.230408,182.303406 
	C359.221130,179.300049 360.873993,178.742783 363.894409,182.201645 
	C368.376831,187.334686 373.324219,192.091263 378.348206,196.709457 
	C380.930420,199.083084 380.875183,200.436050 378.364319,202.909103 
	C362.104553,218.923843 346.009705,235.106186 329.882446,251.255203 
	C295.981323,285.202057 262.050232,319.119232 228.273239,353.189178 
	C225.192169,356.296967 223.635712,356.446808 220.474045,353.229767 
	C201.441437,333.863586 182.153244,314.748535 162.700623,295.299438 
z"/>
</svg>