<svg width="387" height="395" viewBox="0 0 387 395" fill="none" xmlns="http://www.w3.org/2000/svg">
<g clip-path="url(#clip0_955_1978)">
<path d="M330.933 313.932L318.485 383.577C317.403 389.894 311.391 394.141 305.074 393.059L56.8031 350.401C50.4855 349.319 46.2384 343.307 47.3208 336.99L69.3208 218.087" stroke="black" stroke-width="3" stroke-miterlimit="10"/>
<path d="M351.659 193.324L344.848 232.946" stroke="black" stroke-width="3" stroke-miterlimit="10"/>
<path d="M86.5898 109.079L103.637 12.0467C104.719 5.72929 110.731 1.48236 117.049 2.56468L365.319 45.2222C371.637 46.3045 375.884 52.3161 374.802 58.6336L362.919 127.808" stroke="black" stroke-width="3" stroke-miterlimit="10"/>
<path d="M350.172 54.8139L128.108 16.6576C123.018 15.7829 118.181 19.2006 117.307 24.2913L65.7468 324.344C64.872 329.434 68.2898 334.27 73.3807 335.145L295.444 373.301C300.535 374.176 305.371 370.758 306.246 365.668L357.806 65.6153C358.68 60.5246 355.263 55.6886 350.172 54.8139Z" fill="white"/>
<path d="M242.503 0.13025L247.002 0.903259C251.593 1.6922 254.676 6.05354 253.887 10.6449L251.308 25.6481L230.183 22.0182L232.763 7.00339C233.552 2.412 237.913 -0.67029 242.505 0.118655L242.503 0.13025Z" fill="white"/>
<path d="M194.781 9.55884L288.838 25.7203L287.774 31.9117C285.983 42.3351 276.064 49.3447 265.641 47.5536L209.36 37.883C198.936 36.092 191.926 26.1737 193.717 15.7503L194.781 9.55884Z" fill="white" stroke="black" stroke-width="3" stroke-miterlimit="10"/>
<path d="M338.612 350.119L333.906 376.259" stroke="black" stroke-width="3" stroke-miterlimit="10"/>
<path d="M126.587 204.712L119.623 206.123L132.611 223.887C133.176 224.664 132.376 225.687 131.493 225.335L95.3168 211.041L35.8815 223.076C29.658 224.335 23.5992 220.311 22.3404 214.1L10.2227 154.266C8.96388 148.043 12.9874 141.984 19.1992 140.725L109.905 122.361C116.129 121.102 122.187 125.126 123.446 131.337L135.564 191.171C136.823 197.394 132.799 203.453 126.587 204.712Z" fill="#B3E2F1"/>
<path d="M118.353 198.429L111.388 199.841L124.377 217.605C124.941 218.382 124.141 219.405 123.259 219.052L87.0824 204.759L27.6471 216.793C21.4236 218.052 15.3648 214.029 14.1059 207.817L2.00005 147.996C0.741227 141.772 4.76476 135.714 10.9765 134.455L101.682 116.091C107.906 114.832 113.965 118.855 115.224 125.067L127.341 184.9C128.6 191.124 124.577 197.182 118.365 198.441L118.353 198.429Z" stroke="black" stroke-width="3" stroke-miterlimit="10"/>
<path d="M23.1406 153.195L66.8818 144.337" stroke="black" stroke-width="3" stroke-miterlimit="10"/>
<path d="M26.5312 169.924L105.331 153.972" stroke="black" stroke-width="3" stroke-miterlimit="10"/>
<path d="M30.3984 189.065L109.21 173.113" stroke="black" stroke-width="3" stroke-miterlimit="10"/>
<path d="M373.417 248.661L300.378 254.178C294.871 254.594 290.743 259.396 291.16 264.903L293.963 302.008C294.379 307.515 299.18 311.642 304.687 311.226L377.726 305.709C383.234 305.293 387.361 300.491 386.945 294.984L384.142 257.879C383.726 252.372 378.924 248.245 373.417 248.661Z" fill="#E3736C"/>
<path d="M373.048 299.803L300.001 305.32C294.495 305.732 289.695 301.614 289.271 296.097L276.777 289.65L287.789 276.545L286.46 258.992C286.048 253.487 290.166 248.687 295.683 248.263L368.73 242.746C374.236 242.334 379.036 246.451 379.46 251.969L382.26 289.074C382.671 294.579 378.554 299.379 373.036 299.803H373.048Z" stroke="black" stroke-width="3" stroke-miterlimit="10"/>
<path d="M302.258 265.663L328.928 263.651" stroke="black" stroke-width="3" stroke-miterlimit="10"/>
<path d="M303.48 281.968L365.351 277.286" stroke="black" stroke-width="3" stroke-miterlimit="10"/>
<path d="M370.812 187.806L307.588 181.618C302.847 181.159 299.376 176.936 299.847 172.195L287.047 163.854L301.117 159.289L302.965 140.443C303.423 135.702 307.647 132.231 312.388 132.702L375.612 138.89C380.353 139.349 383.823 143.572 383.353 148.313L380.247 180.053C379.788 184.794 375.565 188.265 370.823 187.794L370.812 187.806Z" fill="#FFE26D"/>
<path d="M367.28 183.1L304.057 176.912C299.316 176.453 295.845 172.23 296.316 167.489L283.516 159.148L297.586 154.584L299.433 135.737C299.892 130.996 304.116 127.526 308.857 127.996L372.08 134.184C376.821 134.643 380.292 138.866 379.822 143.607L376.716 175.348C376.257 180.089 372.033 183.559 367.292 183.089L367.28 183.1Z" stroke="black" stroke-width="3" stroke-miterlimit="10"/>
<path d="M313.195 148.09L340.631 150.419" stroke="black" stroke-width="3" stroke-miterlimit="10"/>
<path d="M311.926 158.866L365.302 164.254" stroke="black" stroke-width="3" stroke-miterlimit="10"/>
<path d="M245.246 294.603L267.517 316.885" stroke="#FF4C48" stroke-width="5" stroke-miterlimit="10"/>
<path d="M267.517 294.603L245.246 316.885" stroke="#FF4C48" stroke-width="5" stroke-miterlimit="10"/>
<path d="M149.953 222.064L172.224 244.334" stroke="#FF4C48" stroke-width="5" stroke-miterlimit="10"/>
<path d="M172.224 222.064L149.953 244.334" stroke="#FF4C48" stroke-width="5" stroke-miterlimit="10"/>
<path d="M238.977 141.278L261.247 163.548" stroke="#FF4C48" stroke-width="5" stroke-miterlimit="10"/>
<path d="M261.247 141.278L238.977 163.548" stroke="#FF4C48" stroke-width="5" stroke-miterlimit="10"/>
<path d="M267.789 78.5742L296.754 78.8095L291.907 106.562" stroke="#FF4C48" stroke-width="5" stroke-miterlimit="10"/>
<path d="M293.459 82.0212C267.023 113.597 244.435 112.585 195.223 107.115C140.517 101.032 139.412 174.689 190.388 180.183C235.823 185.077 257.494 242.322 212.082 276.133C177.306 302.015 114.047 305.932 114.047 305.932" stroke="#FF4C48" stroke-width="5" stroke-miterlimit="10"/>
<path d="M103.847 317.438C109.766 317.438 114.564 312.639 114.564 306.72C114.564 300.801 109.766 296.003 103.847 296.003C97.9274 296.003 93.1289 300.801 93.1289 306.72C93.1289 312.639 97.9274 317.438 103.847 317.438Z" stroke="#FF4C48" stroke-width="5" stroke-miterlimit="10"/>
</g>
<defs>
<clipPath id="clip0_955_1978">
<rect width="387" height="395" fill="white"/>
</clipPath>
</defs>
</svg>
