<?xml version="1.0" encoding="UTF-8"?>
<svg id="Layer_2" data-name="Layer 2" xmlns="http://www.w3.org/2000/svg" viewBox="0 0 446.56 403.96">
  <defs>
    <style>
      .cls-1 {
        opacity: .7;
      }

      .cls-2 {
        fill: #fff;
      }

      .cls-3 {
        fill: #ff221d;
      }

      .cls-4 {
        fill: #ffd112;
      }

      .cls-5 {
        fill: #00dbff;
      }
    </style>
  </defs>
  <g id="Layer_2-2" data-name="Layer 2">
    <g class="cls-1">
      <circle class="cls-4" cx="221.15" cy="261.87" r="136.87"/>
    </g>
    <g class="cls-1">
      <circle class="cls-3" cx="308.26" cy="138.6" r="136.87"/>
    </g>
    <g class="cls-1">
      <circle class="cls-5" cx="139.54" cy="138.87" r="136.87"/>
    </g>
    <path d="m138.37,276.75v-3c74.65,0,135.37-60.73,135.37-135.37S213.02,3,138.37,3,3,63.73,3,138.37c0,8.36.77,16.74,2.28,24.9l-2.95.55c-1.55-8.33-2.33-16.9-2.33-25.44C0,62.07,62.07,0,138.37,0s138.37,62.07,138.37,138.37-62.07,138.37-138.37,138.37Z"/>
    <path d="m122.03,275.79c-49.83-5.86-92.64-38.41-111.73-84.93l2.78-1.14c18.67,45.52,60.56,77.35,109.3,83.09l-.35,2.98Z"/>
    <path d="m308.18,276.75c-76.3,0-138.37-62.07-138.37-138.37,0-47.58,24-91.26,64.2-116.83l1.61,2.53c-39.33,25.02-62.81,67.75-62.81,114.3,0,74.64,60.73,135.37,135.37,135.37s135.37-60.73,135.37-135.37S382.83,3,308.18,3c-10.82,0-21.59,1.28-32,3.81l-.71-2.92c10.65-2.58,21.65-3.89,32.71-3.89,76.3,0,138.37,62.07,138.37,138.37s-62.07,138.37-138.37,138.37Z"/>
    <path d="m243.98,17.31l-1.35-2.68c5.44-2.73,11.1-5.12,16.85-7.1l.98,2.84c-5.62,1.94-11.16,4.27-16.48,6.94Z"/>
    <path d="m221.5,400.37c-39.85,0-77.79-17.2-104.08-47.19l2.26-1.98c25.72,29.34,62.84,46.17,101.83,46.17,54.79,0,103.84-32.67,124.97-83.23l2.77,1.16c-21.59,51.68-71.73,85.07-127.73,85.07Z"/>
    <path d="m95.43,319.12c-8.17-17.99-12.31-37.21-12.31-57.13,0-24.55,6.51-48.66,18.83-69.74,11.96-20.45,29.07-37.61,49.49-49.62,12.19-7.17,25.07-.1,38.72,7.38,10.16,5.57,20.67,11.33,31.33,11.33s21.5-5.61,31.82-11.04c14.01-7.37,27.24-14.33,39.67-6.82,20.03,12.11,36.79,29.22,48.48,49.49,12.04,20.89,18.41,44.76,18.41,69.01,0,15.18-2.44,30.1-7.26,44.34l-2.84-.96c4.71-13.94,7.1-28.53,7.1-43.38,0-47.82-24.46-91.16-65.44-115.93-10.98-6.64-23.48-.06-36.72,6.91-10.64,5.6-21.64,11.38-33.22,11.38s-22.27-5.95-32.77-11.7c-12.88-7.06-25.04-13.73-35.76-7.42-41.23,24.25-66.85,68.99-66.85,116.77,0,19.48,4.05,38.29,12.04,55.89l-2.73,1.24Z"/>
    <g>
      <path d="m67.18,102.11h6.79c1.73,0,3.21.59,4.42,1.77,1.2,1.18,1.79,2.63,1.79,4.34s-.6,3.16-1.79,4.34c-1.21,1.18-2.69,1.77-4.42,1.77h-3.2v5.98h-3.59v-18.2Zm3.59,8.87h3.2c.76,0,1.4-.26,1.9-.79.5-.53.75-1.18.75-1.96s-.25-1.46-.75-1.98c-.5-.52-1.14-.78-1.9-.78h-3.2v5.51Z"/>
      <path d="m85.43,107.31v2.24c.29-.81.8-1.43,1.51-1.86.71-.42,1.53-.64,2.44-.64v3.74c-1.02-.14-1.94.07-2.76.62-.8.54-1.2,1.43-1.2,2.68v6.21h-3.35v-13h3.35Z"/>
      <path d="m92.99,105.75c-.55,0-1.04-.2-1.44-.61-.41-.41-.61-.89-.61-1.44s.2-1.04.61-1.46c.41-.42.89-.62,1.44-.62s1.06.21,1.47.62c.41.42.61.9.61,1.46s-.2,1.04-.61,1.44c-.41.41-.9.61-1.47.61Zm1.69,14.56h-3.35v-13h3.35v13Z"/>
      <path d="m103.94,120.67c-1.96,0-3.6-.66-4.91-1.98-1.3-1.32-1.95-2.95-1.95-4.89s.65-3.57,1.95-4.89c1.32-1.32,2.96-1.98,4.91-1.98,1.27,0,2.42.3,3.46.91,1.04.61,1.83,1.42,2.37,2.44l-2.89,1.69c-.26-.54-.65-.96-1.18-1.27-.53-.31-1.12-.47-1.78-.47-1.01,0-1.84.33-2.5,1-.66.67-.99,1.52-.99,2.56s.33,1.85.99,2.55c.66.66,1.49.99,2.5.99.68,0,1.28-.15,1.81-.46.53-.3.92-.72,1.18-1.26l2.91,1.66c-.57,1.04-1.38,1.86-2.43,2.47-1.05.61-2.2.91-3.45.91Z"/>
      <path d="m124.01,115.19h-9.8c.43,1.63,1.66,2.44,3.67,2.44,1.28,0,2.25-.43,2.91-1.3l2.7,1.56c-1.28,1.85-3.17,2.78-5.67,2.78-2.15,0-3.87-.65-5.17-1.95-1.3-1.3-1.95-2.94-1.95-4.91s.64-3.57,1.92-4.89c1.27-1.32,2.91-1.98,4.94-1.98s3.49.66,4.71,1.98c1.25,1.32,1.87,2.95,1.87,4.89,0,.36-.04.82-.13,1.38Zm-9.85-2.6h6.63c-.19-.85-.58-1.5-1.16-1.95-.58-.45-1.27-.68-2.07-.68-.9,0-1.65.23-2.24.69-.59.46-.98,1.1-1.17,1.94Z"/>
    </g>
    <g>
      <path d="m154.58,303.78h13.39v3.43h-4.91v14.77h-3.59v-14.77h-4.89v-3.43Z"/>
      <path d="m176.32,316v-7.02h3.35v13h-3.35v-1.46c-.8,1.21-2.09,1.82-3.87,1.82-1.42,0-2.6-.48-3.54-1.43-.92-.97-1.38-2.29-1.38-3.95v-7.98h3.35v7.57c0,.85.23,1.51.69,1.98.46.47,1.09.7,1.89.7.88,0,1.58-.27,2.09-.82.51-.55.77-1.35.77-2.4Z"/>
      <path d="m186.1,308.98v2.24c.29-.81.8-1.43,1.51-1.86.71-.42,1.53-.64,2.44-.64v3.74c-1.02-.14-1.94.07-2.76.62-.8.54-1.2,1.43-1.2,2.68v6.21h-3.35v-13h3.35Z"/>
      <path d="m199.23,308.61c1.44,0,2.61.48,3.51,1.43.94.97,1.4,2.29,1.4,3.95v7.98h-3.35v-7.57c0-.85-.23-1.51-.69-1.98-.46-.47-1.09-.7-1.89-.7-.88,0-1.58.27-2.09.82-.51.55-.77,1.35-.77,2.4v7.02h-3.35v-13h3.35v1.46c.8-1.21,2.09-1.82,3.87-1.82Z"/>
      <path d="m216.88,310.51v-1.53h3.35v13h-3.35v-1.53c-1.01,1.27-2.42,1.9-4.24,1.9s-3.22-.66-4.47-1.98c-1.23-1.33-1.85-2.96-1.85-4.89s.62-3.53,1.85-4.86c1.25-1.33,2.74-2,4.47-2,1.82,0,3.23.63,4.24,1.9Zm-6.19,7.62c.68.68,1.53,1.01,2.57,1.01s1.9-.34,2.57-1.01c.69-.69,1.04-1.58,1.04-2.65s-.35-1.95-1.04-2.63c-.68-.69-1.53-1.04-2.57-1.04s-1.9.35-2.57,1.04c-.68.68-1.01,1.55-1.01,2.63s.34,1.96,1.01,2.65Z"/>
      <path d="m226.63,308.98v2.24c.29-.81.8-1.43,1.51-1.86.71-.42,1.53-.64,2.44-.64v3.74c-1.02-.14-1.94.07-2.76.62-.8.54-1.2,1.43-1.2,2.68v6.21h-3.35v-13h3.35Z"/>
      <path d="m243.11,320.36c-1.32,1.32-2.95,1.98-4.89,1.98s-3.57-.66-4.89-1.98c-1.32-1.32-1.98-2.95-1.98-4.89s.66-3.54,1.98-4.86,2.96-2,4.89-2,3.55.67,4.89,2c1.33,1.33,2,2.96,2,4.86s-.67,3.55-2,4.89Zm-7.41-2.31c.68.68,1.52,1.01,2.52,1.01s1.85-.34,2.52-1.01c.68-.68,1.01-1.53,1.01-2.57s-.34-1.9-1.01-2.57c-.68-.68-1.52-1.01-2.52-1.01s-1.85.34-2.52,1.01c-.66.69-.99,1.55-.99,2.57s.33,1.88.99,2.57Z"/>
      <path d="m256.06,316v-7.02h3.35v13h-3.35v-1.46c-.8,1.21-2.09,1.82-3.87,1.82-1.42,0-2.6-.48-3.54-1.43-.92-.97-1.38-2.29-1.38-3.95v-7.98h3.35v7.57c0,.85.23,1.51.69,1.98.46.47,1.09.7,1.89.7.88,0,1.58-.27,2.09-.82.51-.55.77-1.35.77-2.4Z"/>
      <path d="m269.71,308.61c1.44,0,2.61.48,3.51,1.43.94.97,1.4,2.29,1.4,3.95v7.98h-3.35v-7.57c0-.85-.23-1.51-.69-1.98-.46-.47-1.09-.7-1.89-.7-.88,0-1.58.27-2.09.82-.51.55-.77,1.35-.77,2.4v7.02h-3.35v-13h3.35v1.46c.8-1.21,2.09-1.82,3.87-1.82Z"/>
      <path d="m287.34,310.51v-6.73h3.35v18.2h-3.35v-1.53c-.99,1.27-2.39,1.9-4.21,1.9s-3.25-.66-4.5-1.98c-1.23-1.33-1.85-2.96-1.85-4.89s.61-3.53,1.85-4.86c1.25-1.33,2.75-2,4.5-2s3.22.63,4.21,1.9Zm-6.19,7.62c.71.68,1.58,1.01,2.6,1.01s1.9-.34,2.57-1.01c.68-.69,1.01-1.58,1.01-2.65s-.34-1.95-1.01-2.63c-.68-.69-1.53-1.04-2.57-1.04s-1.91.35-2.6,1.04c-.68.68-1.01,1.55-1.01,2.63s.34,1.96,1.01,2.65Z"/>
      <path d="m197.96,331.78h13.39v3.43h-4.91v14.77h-3.59v-14.77h-4.89v-3.43Z"/>
      <path d="m214.86,335.42c-.55,0-1.04-.2-1.44-.61-.41-.41-.61-.89-.61-1.44s.2-1.04.61-1.46c.41-.42.89-.62,1.44-.62s1.06.21,1.47.62c.41.42.61.9.61,1.46s-.2,1.04-.61,1.44c-.41.41-.9.61-1.47.61Zm1.69,14.56h-3.35v-13h3.35v13Z"/>
      <path d="m234,336.61c1.49,0,2.68.49,3.57,1.46.89.97,1.34,2.27,1.34,3.9v8.01h-3.35v-7.77c0-.78-.19-1.39-.57-1.82-.38-.43-.92-.65-1.61-.65-.76,0-1.36.25-1.78.75-.43.5-.64,1.23-.64,2.18v7.31h-3.35v-7.77c0-.78-.19-1.39-.57-1.82-.38-.43-.92-.65-1.61-.65-.75,0-1.34.26-1.78.77-.44.51-.66,1.23-.66,2.17v7.31h-3.35v-13h3.35v1.38c.78-1.16,1.98-1.74,3.61-1.74s2.79.62,3.54,1.87c.85-1.25,2.14-1.87,3.87-1.87Z"/>
      <path d="m254.41,344.85h-9.8c.43,1.63,1.66,2.44,3.67,2.44,1.28,0,2.25-.43,2.91-1.3l2.7,1.56c-1.28,1.85-3.17,2.78-5.67,2.78-2.15,0-3.87-.65-5.17-1.95-1.3-1.3-1.95-2.94-1.95-4.91s.64-3.57,1.92-4.89c1.27-1.32,2.91-1.98,4.94-1.98s3.49.66,4.71,1.98c1.25,1.32,1.87,2.95,1.87,4.89,0,.36-.04.82-.13,1.38Zm-9.85-2.6h6.63c-.19-.85-.58-1.5-1.16-1.95-.58-.45-1.27-.68-2.07-.68-.9,0-1.65.23-2.24.69-.59.46-.98,1.1-1.17,1.94Z"/>
    </g>
    <g>
      <path d="m326.91,111.21c0,2.34-.75,4.39-2.24,6.14l1.87,1.95-2.55,2.26-1.98-2.05c-1.4.78-2.93,1.17-4.58,1.17-2.6,0-4.83-.91-6.68-2.73-1.84-1.84-2.76-4.08-2.76-6.73s.92-4.89,2.76-6.71c1.84-1.84,4.06-2.76,6.68-2.76s4.84.92,6.68,2.76c1.85,1.82,2.78,4.06,2.78,6.71Zm-9.46,5.95c.69,0,1.37-.11,2.03-.34l-2.99-3.12,2.55-2.26,3.2,3.33c.73-1.04,1.09-2.23,1.09-3.56,0-1.73-.56-3.16-1.69-4.29-1.13-1.13-2.52-1.69-4.19-1.69s-3.06.56-4.19,1.69-1.69,2.56-1.69,4.29.56,3.14,1.69,4.26c1.13,1.13,2.52,1.69,4.19,1.69Z"/>
      <path d="m338.12,114.33v-7.02h3.35v13h-3.35v-1.46c-.8,1.21-2.09,1.82-3.87,1.82-1.42,0-2.6-.48-3.54-1.43-.92-.97-1.38-2.29-1.38-3.95v-7.98h3.35v7.57c0,.85.23,1.51.69,1.98.46.47,1.09.7,1.89.7.88,0,1.58-.27,2.09-.82.51-.55.77-1.35.77-2.4Z"/>
      <path d="m354.42,108.84v-1.53h3.35v13h-3.35v-1.53c-1.01,1.27-2.42,1.9-4.24,1.9s-3.22-.66-4.47-1.98c-1.23-1.33-1.85-2.96-1.85-4.89s.62-3.53,1.85-4.86c1.25-1.33,2.74-2,4.47-2,1.82,0,3.23.63,4.24,1.9Zm-6.19,7.62c.68.68,1.53,1.01,2.57,1.01s1.9-.34,2.57-1.01c.69-.69,1.04-1.58,1.04-2.65s-.35-1.95-1.04-2.63c-.68-.69-1.53-1.04-2.57-1.04s-1.9.35-2.57,1.04c-.68.68-1.01,1.55-1.01,2.63s.34,1.96,1.01,2.65Z"/>
      <path d="m364.17,120.31h-3.35v-18.98h3.35v18.98Z"/>
      <path d="m368.9,105.75c-.55,0-1.04-.2-1.44-.61-.41-.41-.61-.89-.61-1.44s.2-1.04.61-1.46c.41-.42.89-.62,1.44-.62s1.06.21,1.47.62c.41.42.61.9.61,1.46s-.2,1.04-.61,1.44c-.41.41-.9.61-1.47.61Zm1.69,14.56h-3.35v-13h3.35v13Z"/>
      <path d="m381.1,107.31v3.22h-2.94v5.41c0,.45.11.78.34.99.22.21.55.32.99.35.43.03.97.02,1.61-.01v3.04c-2.27.26-3.89.05-4.85-.64-.96-.68-1.44-1.93-1.44-3.73v-5.41h-2.26v-3.22h2.26v-2.63l3.35-1.01v3.64h2.94Z"/>
      <path d="m389.34,116.05l2.89-8.74h3.59l-4.73,13c-.68,1.87-1.57,3.23-2.69,4.07-1.12.84-2.51,1.22-4.17,1.13v-3.12c.88.02,1.59-.17,2.13-.57.54-.4.96-1.04,1.27-1.92l-5.33-12.58h3.67l3.38,8.74Z"/>
    </g>
    <path class="cls-2" d="m278.57,114.09c-35.83-11.07-55.64,29.71-55.64,29.71v.04s0-.04,0-.04c0,0-19.81-40.78-55.64-29.71-35.83,11.07-38.16,46.02-32.63,67,5.53,20.97,37.23,39.4,53.72,53.32,16.39,13.83,34.54,33.78,34.54,33.78h0s0,0,0,0c0,0,17.99-21.5,34.79-35.56,16.56-13.84,47.94-30.57,53.47-51.54,5.53-20.97,3.2-55.93-32.63-67Z"/>
    <g>
      <path d="m175.39,177.16c.1,0,.18.01.26.04.08.02.17.05.26.08.1.03.2.06.33.08.12.02.28.04.47.04.57,0,1.2-.06,1.89-.18.69-.12,1.35-.28,1.96-.47.62-.19,1.14-.41,1.58-.66s.69-.5.75-.77c.04-.15.05-.27.05-.38,0-.2-.1-.4-.3-.59s-.45-.36-.75-.53c-.3-.17-.63-.33-.98-.47-.35-.14-.68-.28-.98-.4l-.62-.25c-.31-.12-.62-.27-.92-.44-.3-.17-.58-.38-.84-.61s-.49-.5-.69-.81c-.2-.31-.35-.66-.44-1.06-.05-.17-.09-.34-.12-.51s-.04-.35-.04-.54c0-.31.11-.67.32-1.08.21-.4.49-.81.85-1.2s.76-.78,1.21-1.14.93-.66,1.42-.9c.36-.25.71-.48,1.05-.69.34-.21.68-.38,1.02-.52.34-.14.69-.26,1.05-.34.36-.08.73-.13,1.13-.13.36,0,.75.02,1.18.05.42.04.81.12,1.16.25.35.13.64.33.88.59.24.26.35.61.35,1.04,0,.13-.02.31-.05.52-.04.22-.1.43-.18.65-.08.22-.19.4-.31.56-.12.16-.27.23-.43.23-.28,0-.51-.05-.69-.16-.18-.11-.34-.23-.49-.35-.15-.13-.3-.24-.45-.35-.16-.11-.35-.16-.58-.16-.28,0-.6.05-.97.15-.37.1-.75.24-1.13.42-.39.18-.76.38-1.13.61-.37.23-.7.46-1,.71-.3.24-.53.48-.71.71-.18.24-.27.45-.27.64,0,.21.07.37.2.51.13.13.3.25.51.34.27.15.57.29.91.43.34.14.69.29,1.04.43.35.15.69.29,1.02.43.33.14.62.28.86.4.33.17.62.33.88.5s.48.34.66.53c.18.19.32.41.42.65.1.24.15.52.15.85,0,.16-.01.31-.04.47-.02.16-.06.34-.11.54-.04.18-.1.39-.19.63-.09.24-.19.48-.29.71s-.21.45-.32.63c-.11.19-.2.31-.27.37-.47.43-1.03.84-1.67,1.22-.64.38-1.31.71-2,1-.69.28-1.39.51-2.08.68-.69.17-1.33.25-1.91.25-.29,0-.61-.06-.96-.17-.35-.11-.67-.27-.97-.45s-.54-.4-.74-.64c-.2-.24-.3-.48-.3-.72,0-.12.04-.26.11-.41s.16-.29.27-.42c.11-.13.23-.24.35-.33.13-.09.24-.14.35-.14Z"/>
      <path d="m192.59,164.19c.22-.47.46-.79.74-.95.28-.16.6-.24.96-.24s.65.05.89.16c.24.11.43.25.58.43.15.18.25.39.31.63s.09.5.09.78v.24c0,.08,0,.16-.02.24-.01.11-.04.3-.09.59-.05.28-.11.62-.17,1-.07.39-.14.79-.22,1.22-.08.43-.15.84-.22,1.22-.07.39-.13.72-.18,1.01s-.09.49-.12.6c-.02.12-.05.3-.09.52s-.07.49-.11.79-.07.61-.09.95c-.02.34-.04.68-.04,1.01s.01.64.04.93c.02.3.07.56.14.78s.15.4.25.53.23.2.39.2c.11,0,.27-.09.48-.26.21-.17.43-.38.67-.62s.47-.5.7-.77c.23-.27.42-.5.56-.68.78-.96,1.5-1.95,2.16-2.94.66-1,1.27-2,1.84-3.01.22-.4.38-.8.5-1.21.11-.41.25-.78.41-1.11.16-.33.38-.6.66-.81.28-.21.71-.32,1.28-.32.3,0,.61.1.92.31.31.21.53.5.65.89-.04.45-.09.9-.16,1.38-.07.47-.14.95-.2,1.44-.06.49-.11.97-.16,1.46-.05.48-.07.95-.07,1.41,0,.71.07,1.37.22,1.98.14.61.41,1.12.8,1.55.47-.59.94-1.26,1.4-2.01s.92-1.53,1.37-2.33c.45-.81.87-1.63,1.28-2.45.4-.83.78-1.61,1.13-2.36.02-.06.04-.12.05-.17,0-.05,0-.11,0-.17v-.16c0-.37.11-.76.32-1.16.21-.4.46-.76.75-1.09s.59-.59.9-.8.56-.31.77-.31c.51,0,.9.14,1.19.42.29.28.43.65.43,1.1,0,.14-.03.33-.08.54-.05.22-.14.43-.26.65l-6.1,10.75-.45.89c-.19.37-.38.74-.57,1.09-.19.35-.39.66-.62.92-.22.27-.47.48-.74.63-.27.16-.58.24-.93.24-.47,0-.89-.13-1.26-.4s-.68-.59-.95-.98c-.27-.39-.49-.81-.66-1.26-.17-.45-.3-.86-.39-1.22l-.67-2.9s-.16.13-.38.38-.49.58-.81.98c-.33.4-.68.84-1.07,1.31-.39.48-.76.94-1.13,1.38-.37.44-.71.84-1.01,1.19s-.55.61-.71.75c-.17.15-.35.29-.53.43-.19.14-.37.27-.55.38s-.35.2-.52.27c-.16.07-.3.11-.41.11-.8,0-1.46-.19-1.98-.56s-.94-.86-1.25-1.47-.52-1.28-.64-2.02c-.12-.74-.18-1.49-.18-2.23,0-.66.03-1.33.1-2.01.07-.68.14-1.34.23-2,.09-.66.19-1.29.29-1.91s.19-1.19.26-1.72c.01-.1.02-.21.03-.33,0-.13,0-.26,0-.39v-.47c0-.19,0-.37,0-.53,0-.16.03-.27.06-.33Z"/>
      <path d="m217.22,173.38c0-.52.14-.96.42-1.32.28-.36.65-.6,1.1-.72.13-.27.34-.62.62-1.08.28-.45.62-.94,1.03-1.48.41-.53.88-1.06,1.4-1.6s1.1-1.03,1.74-1.47,1.31-.8,2.04-1.08c.73-.28,1.5-.42,2.33-.42.7,0,1.31.08,1.83.25.52.17.95.4,1.28.71s.59.66.76,1.08c.17.42.25.87.25,1.35,0,.41-.05.8-.16,1.18-.17.68-.48,1.27-.94,1.77-.46.51-1,.95-1.62,1.33-.62.38-1.3.7-2.03.95-.73.25-1.46.46-2.19.63-.73.17-1.43.3-2.11.39-.68.09-1.26.16-1.75.21-.11.22-.2.49-.28.82-.08.33-.12.65-.12.97,0,.7.28,1.24.83,1.63.55.39,1.32.58,2.3.58.57,0,1.11-.06,1.63-.19.52-.13,1.01-.29,1.47-.49.46-.2.9-.42,1.31-.65.41-.24.78-.47,1.12-.7.43-.29.85-.53,1.24-.73s.74-.3,1.04-.3.49.08.58.23c.08.15.13.31.13.48,0,.1,0,.19,0,.28,0,.09-.02.17-.03.23-.06.31-.18.63-.36.94-.18.31-.41.58-.69.81-1.25.99-2.54,1.7-3.86,2.12-1.32.42-2.73.63-4.23.63-.29,0-.63-.02-1.02-.05-.39-.04-.8-.11-1.22-.22-.42-.11-.84-.27-1.25-.47s-.78-.48-1.09-.81c-.32-.34-.58-.75-.78-1.25-.2-.49-.3-1.09-.3-1.79,0-.57.08-1.2.24-1.9-.16-.02-.3-.11-.44-.24s-.21-.34-.21-.61Zm11.33-5.01c.02-.06.04-.11.04-.16v-.16c0-.33-.12-.57-.36-.73-.24-.16-.53-.24-.87-.24-.53,0-1.05.14-1.57.42-.51.28-1,.62-1.45,1.04-.45.42-.85.86-1.2,1.34-.35.48-.62.91-.81,1.29.87-.07,1.67-.19,2.39-.35.72-.16,1.35-.37,1.89-.62.54-.25.97-.52,1.3-.83.33-.31.55-.64.64-.99Z"/>
      <path d="m235.53,173.38c0-.52.14-.96.42-1.32.28-.36.65-.6,1.1-.72.13-.27.34-.62.62-1.08.28-.45.62-.94,1.03-1.48.41-.53.88-1.06,1.4-1.6s1.1-1.03,1.74-1.47,1.31-.8,2.04-1.08c.73-.28,1.5-.42,2.33-.42.7,0,1.31.08,1.83.25.52.17.95.4,1.28.71s.59.66.76,1.08c.17.42.25.87.25,1.35,0,.41-.05.8-.16,1.18-.17.68-.48,1.27-.94,1.77-.46.51-1,.95-1.62,1.33-.62.38-1.3.7-2.03.95-.73.25-1.46.46-2.19.63-.73.17-1.43.3-2.11.39-.68.09-1.26.16-1.75.21-.11.22-.2.49-.28.82-.08.33-.12.65-.12.97,0,.7.28,1.24.83,1.63.55.39,1.32.58,2.3.58.57,0,1.11-.06,1.63-.19.52-.13,1.01-.29,1.47-.49.46-.2.9-.42,1.31-.65.41-.24.78-.47,1.12-.7.43-.29.85-.53,1.24-.73s.74-.3,1.04-.3.49.08.58.23c.08.15.13.31.13.48,0,.1,0,.19,0,.28,0,.09-.02.17-.03.23-.06.31-.18.63-.36.94-.18.31-.41.58-.69.81-1.25.99-2.54,1.7-3.86,2.12-1.32.42-2.73.63-4.23.63-.29,0-.63-.02-1.02-.05-.39-.04-.8-.11-1.22-.22-.42-.11-.84-.27-1.25-.47s-.78-.48-1.09-.81c-.32-.34-.58-.75-.78-1.25-.2-.49-.3-1.09-.3-1.79,0-.57.08-1.2.24-1.9-.16-.02-.3-.11-.44-.24s-.21-.34-.21-.61Zm11.33-5.01c.02-.06.04-.11.04-.16v-.16c0-.33-.12-.57-.36-.73-.24-.16-.53-.24-.87-.24-.53,0-1.05.14-1.57.42-.51.28-1,.62-1.45,1.04-.45.42-.85.86-1.2,1.34-.35.48-.62.91-.81,1.29.87-.07,1.67-.19,2.39-.35.72-.16,1.35-.37,1.89-.62.54-.25.97-.52,1.3-.83.33-.31.55-.64.64-.99Z"/>
      <path d="m256.69,174.73c0-1.01.11-2.07.34-3.16.23-1.09.47-2.14.72-3.14-.31-.01-.63-.06-.96-.14s-.62-.2-.89-.34c-.27-.15-.48-.32-.65-.53-.17-.21-.25-.46-.25-.73,0-.11.02-.25.07-.42.05-.17.12-.33.21-.5.09-.16.21-.3.35-.42.14-.11.31-.17.49-.17h2.42c.23,0,.39-.1.47-.3.08-.2.15-.4.2-.59.16-.7.3-1.31.44-1.82.14-.51.26-.95.35-1.3.1-.36.17-.65.23-.87.05-.22.08-.4.08-.53,0-.16,0-.31-.02-.45-.01-.15-.02-.34-.02-.6v-.18c0-.1,0-.22.03-.38s.08-.38.17-.67c.07-.23.21-.45.4-.65.19-.21.48-.31.85-.31.33,0,.6.07.83.2.23.13.42.31.56.52.14.22.25.46.33.74.07.28.11.56.11.83,0,.3-.03.57-.09.81l-1.32,5.07c.65-.11,1.23-.21,1.74-.31.51-.1,1.01-.19,1.52-.29.55-.11,1.03-.21,1.44-.31.4-.1.75-.18,1.04-.24s.53-.12.73-.16c.2-.04.36-.06.5-.06.19,0,.39.02.59.04.2.03.37.08.52.15.15.07.27.18.37.31.1.13.15.31.15.52,0,.29-.06.55-.17.77-.11.22-.26.42-.44.58-.18.16-.39.3-.62.4-.23.1-.46.18-.69.23-.19.04-.44.09-.75.16s-.65.15-1.01.24c-.37.08-.75.17-1.15.27s-.78.19-1.16.29c-.56.14-1.03.27-1.42.36s-.73.17-1,.22c-.28.05-.5.08-.68.11-.18.02-.32.04-.43.04-.23.69-.43,1.36-.6,2.03-.17.66-.31,1.28-.43,1.85-.11.57-.2,1.09-.25,1.54-.05.45-.08.81-.08,1.06,0,.33.03.64.09.93.06.3.16.55.31.77.14.22.34.39.59.52.25.13.56.19.93.19.64,0,1.27-.17,1.88-.52.62-.35,1.2-.79,1.76-1.33.56-.54,1.09-1.12,1.59-1.76.5-.64.96-1.25,1.38-1.83.14-.22.33-.33.56-.33.07,0,.16.01.26.04.1.02.2.07.3.13.1.06.18.14.24.23.07.1.1.21.1.34,0,.1,0,.17-.02.22-.19.75-.49,1.5-.9,2.25s-.82,1.51-1.24,2.27c-.15.27-.33.52-.57.78-.23.25-.49.5-.77.73s-.57.46-.87.67c-.3.21-.59.4-.85.57-.46.29-.96.49-1.5.6-.54.11-1.07.16-1.57.16-.78,0-1.48-.14-2.09-.43-.61-.28-1.12-.67-1.54-1.16-.42-.49-.73-1.06-.95-1.71-.22-.65-.33-1.35-.33-2.1Z"/>
      <path d="m187.04,209.28c.1,0,.18.01.26.04.08.02.17.05.26.08.1.03.2.06.33.08.12.02.28.04.47.04.57,0,1.2-.06,1.89-.18.69-.12,1.35-.28,1.96-.47.62-.19,1.14-.41,1.58-.66s.69-.5.75-.77c.04-.15.05-.27.05-.38,0-.2-.1-.4-.3-.59s-.45-.36-.75-.53c-.3-.17-.63-.33-.98-.47-.35-.14-.68-.28-.98-.4l-.62-.25c-.31-.12-.62-.27-.92-.44-.3-.17-.58-.38-.84-.61s-.49-.5-.69-.81c-.2-.31-.35-.66-.44-1.06-.05-.17-.09-.34-.12-.51s-.04-.35-.04-.54c0-.31.11-.67.32-1.08.21-.4.49-.81.85-1.2s.76-.78,1.21-1.14.93-.66,1.42-.9c.36-.25.71-.48,1.05-.69.34-.21.68-.38,1.02-.52.34-.14.69-.26,1.05-.34.36-.08.73-.13,1.13-.13.36,0,.75.02,1.18.05.42.04.81.12,1.16.25.35.13.64.33.88.59.24.26.35.61.35,1.04,0,.13-.02.31-.05.52-.04.22-.1.43-.18.65-.08.22-.19.4-.31.56-.12.16-.27.23-.43.23-.28,0-.51-.05-.69-.16-.18-.11-.34-.23-.49-.35-.15-.13-.3-.24-.45-.35-.16-.11-.35-.16-.58-.16-.28,0-.6.05-.97.15-.37.1-.75.24-1.13.42-.39.18-.76.38-1.13.61-.37.23-.7.46-1,.71-.3.24-.53.48-.71.71-.18.24-.27.45-.27.64,0,.21.07.37.2.51.13.13.3.25.51.34.27.15.57.29.91.43.34.14.69.29,1.04.43.35.15.69.29,1.02.43.33.14.62.28.86.4.33.17.62.33.88.5s.48.34.66.53c.18.19.32.41.42.65.1.24.15.52.15.85,0,.16-.01.31-.04.47-.02.16-.06.34-.11.54-.04.18-.1.39-.19.63-.09.24-.19.48-.29.71s-.21.45-.32.63c-.11.19-.2.31-.27.37-.47.43-1.03.84-1.67,1.22-.64.38-1.31.71-2,1-.69.28-1.39.51-2.08.68-.69.17-1.33.25-1.91.25-.29,0-.61-.06-.96-.17-.35-.11-.67-.27-.97-.45s-.54-.4-.74-.64c-.2-.24-.3-.48-.3-.72,0-.12.04-.26.11-.41s.16-.29.27-.42c.11-.13.23-.24.35-.33.13-.09.24-.14.35-.14Z"/>
      <path d="m200.36,219.18c.24-.98.46-1.87.64-2.69.19-.81.36-1.58.52-2.3s.3-1.41.44-2.08.28-1.34.42-2.03.28-1.39.43-2.13c.15-.74.32-1.54.5-2.41l.87-4.2c.14-.71.24-1.32.3-1.84.05-.51.08-.99.08-1.42,0-.46.01-.87.04-1.22.02-.36.09-.66.2-.9.11-.25.27-.43.48-.56.21-.13.5-.19.88-.19.54,0,.96.08,1.27.23.3.15.52.35.67.59.15.24.23.52.26.83.03.31.04.64.04.98.41-.29.89-.55,1.44-.78.55-.23,1.12-.42,1.71-.57.59-.15,1.19-.27,1.79-.35.6-.08,1.17-.13,1.7-.13.87,0,1.63.15,2.28.46.65.31,1.19.72,1.63,1.23.43.51.76,1.1.98,1.77s.33,1.36.33,2.07c0,.83-.13,1.62-.4,2.35-.27.74-.63,1.42-1.09,2.06-.46.64-.99,1.23-1.6,1.78-.61.55-1.27,1.05-1.97,1.51s-1.44.88-2.19,1.26-1.5.72-2.23,1.02c-.49.21-.96.36-1.4.46s-.84.15-1.19.15c-.5,0-.97-.05-1.44-.16-.46-.11-.91-.29-1.35-.54-.24.82-.44,1.6-.61,2.35-.16.75-.29,1.41-.39,1.99-.06.36-.13.74-.22,1.14-.08.4-.17.79-.25,1.17-.08.38-.17.74-.24,1.08-.08.34-.14.63-.19.87-.04.14-.12.27-.26.36-.14.1-.3.18-.5.24s-.39.11-.59.14c-.2.03-.38.05-.53.05-.89,0-1.34-.35-1.34-1.05,0-.19.03-.4.09-.62Zm5.61-10.5c.18.02.37.05.58.09s.4.07.6.11.36.07.5.1c.14.03.23.05.28.05.23,0,.49-.03.77-.09.28-.06.57-.14.85-.23.28-.1.56-.2.82-.32.27-.11.5-.23.71-.33.59-.3,1.22-.67,1.89-1.09s1.29-.92,1.86-1.48c.57-.55,1.05-1.18,1.42-1.86.37-.69.56-1.45.56-2.28,0-.34-.04-.65-.13-.94s-.21-.54-.38-.76c-.17-.22-.39-.39-.66-.52-.27-.13-.59-.19-.97-.19-.41,0-.8.03-1.16.08s-.72.14-1.07.26c-.35.12-.7.27-1.05.46-.35.19-.71.41-1.09.68-.34.28-.72.52-1.14.73s-.88.35-1.38.41l-1.83,7.13Z"/>
      <path d="m223.03,205.55c.18-.74.46-1.52.84-2.34.38-.83.88-1.66,1.49-2.51s1.35-1.67,2.22-2.48,1.86-1.56,3-2.26c.18-.11.46-.23.83-.35.37-.13.76-.2,1.16-.23.47-.51,1.1-.76,1.9-.76.94,0,1.73.24,2.38.71s1.18,1.12,1.6,1.95c.13.27.26.52.37.78.11.25.21.52.29.81.08.28.14.59.19.91.05.33.07.69.07,1.1,0,.95-.15,1.92-.45,2.91-.3.99-.73,1.95-1.29,2.9-.55.94-1.23,1.84-2.02,2.71-.79.86-1.67,1.64-2.63,2.33-.65.47-1.37.83-2.16,1.09-.79.26-1.67.39-2.65.39s-1.73-.12-2.42-.37c-.68-.25-1.25-.6-1.7-1.06-.45-.46-.79-1.01-1.01-1.65-.22-.64-.33-1.35-.33-2.14s.11-1.57.33-2.44Zm3,.23c-.07.28-.12.54-.15.79-.03.25-.05.49-.05.71,0,.4.05.77.15,1.11s.27.64.5.89c.23.25.52.44.86.58.34.14.76.21,1.26.21.92,0,1.77-.23,2.56-.7.79-.46,1.49-1.05,2.11-1.75.62-.7,1.13-1.45,1.55-2.25.42-.8.71-1.54.88-2.22.11-.42.2-.82.28-1.19.08-.37.12-.72.12-1.03s-.06-.61-.17-.88-.26-.58-.44-.91c-.11-.21-.22-.42-.33-.64-.11-.22-.21-.44-.29-.66-.1.17-.2.32-.31.44-.11.13-.27.24-.49.34s-.51.2-.89.28-.86.16-1.47.22c-.4.13-.8.34-1.21.62s-.81.6-1.2.98c-.39.37-.77.78-1.12,1.21-.36.43-.68.88-.96,1.33-.28.45-.53.9-.74,1.33-.21.43-.36.83-.44,1.19Z"/>
      <path d="m245.03,206.85c0-1.01.11-2.07.34-3.16.23-1.09.47-2.14.72-3.14-.31-.01-.63-.06-.96-.14s-.62-.2-.89-.34c-.27-.15-.48-.32-.65-.53-.17-.21-.25-.46-.25-.73,0-.11.02-.25.07-.42.05-.17.12-.33.21-.5.09-.16.21-.3.35-.42.14-.11.31-.17.49-.17h2.42c.23,0,.39-.1.47-.3.08-.2.15-.4.2-.59.16-.7.3-1.31.44-1.82.14-.51.26-.95.35-1.3.1-.36.17-.65.23-.87.05-.22.08-.4.08-.53,0-.16,0-.31-.02-.45-.01-.15-.02-.34-.02-.6v-.18c0-.1,0-.22.03-.38s.08-.38.17-.67c.07-.23.21-.45.4-.65.19-.21.48-.31.85-.31.33,0,.6.07.83.2.23.13.42.31.56.52.14.22.25.46.33.74.07.28.11.56.11.83,0,.3-.03.57-.09.81l-1.32,5.07c.65-.11,1.23-.21,1.74-.31.51-.1,1.01-.19,1.52-.29.55-.11,1.03-.21,1.44-.31.4-.1.75-.18,1.04-.24s.53-.12.73-.16c.2-.04.36-.06.5-.06.19,0,.39.02.59.04.2.03.37.08.52.15.15.07.27.18.37.31.1.13.15.31.15.52,0,.29-.06.55-.17.77-.11.22-.26.42-.44.58-.18.16-.39.3-.62.4-.23.1-.46.18-.69.23-.19.04-.44.09-.75.16s-.65.15-1.01.24c-.37.08-.75.17-1.15.27s-.78.19-1.16.29c-.56.14-1.03.27-1.42.36s-.73.17-1,.22c-.28.05-.5.08-.68.11-.18.02-.32.04-.43.04-.23.69-.43,1.36-.6,2.03-.17.66-.31,1.28-.43,1.85-.11.57-.2,1.09-.25,1.54-.05.45-.08.81-.08,1.06,0,.33.03.64.09.93.06.3.16.55.31.77.14.22.34.39.59.52.25.13.56.19.93.19.64,0,1.27-.17,1.88-.52.62-.35,1.2-.79,1.76-1.33.56-.54,1.09-1.12,1.59-1.76.5-.64.96-1.25,1.38-1.83.14-.22.33-.33.56-.33.07,0,.16.01.26.04.1.02.2.07.3.13.1.06.18.14.24.23.07.1.1.21.1.34,0,.1,0,.17-.02.22-.19.75-.49,1.5-.9,2.25s-.82,1.51-1.24,2.27c-.15.27-.33.52-.57.78-.23.25-.49.5-.77.73s-.57.46-.87.67c-.3.21-.59.4-.85.57-.46.29-.96.49-1.5.6-.54.11-1.07.16-1.57.16-.78,0-1.48-.14-2.09-.43-.61-.28-1.12-.67-1.54-1.16-.42-.49-.73-1.06-.95-1.71-.22-.65-.33-1.35-.33-2.1Z"/>
    </g>
    <path d="m399.59,256.48l-1.51-2.59c20.07-11.65,34.97-37.52,35.12-37.78l2.61,1.49c-.62,1.09-15.44,26.82-36.22,38.89Z"/>
    <path d="m14.68,55l-2.7-1.31c5.09-10.53,14.21-17.73,14.59-18.03l1.85,2.36c-.09.07-8.96,7.09-13.74,16.97Z"/>
    <path d="m176.11,403.96c-16-4.33-30.21-12.4-30.35-12.48l1.49-2.6c.14.08,14.03,7.96,29.65,12.19l-.78,2.9Z"/>
  </g>
</svg>